<?xml version="1.0" encoding="UTF-8"?>
<!-- Generator: Adobe Illustrator 28.0.0, SVG Export Plug-In . SVG Version: 6.00 Build 0)  -->
<svg version="1.1" id="Layer_1" xmlns="http://www.w3.org/2000/svg" xmlns:xlink="http://www.w3.org/1999/xlink" x="0px" y="0px" viewBox="0 0 360.2 88.8" style="enable-background:new 0 0 360.2 88.8;" xml:space="preserve">
<style type="text/css">
	.st0{clip-path:url(#SVGID_00000134958187691465587640000015842916893538191519_);}
	.st1{fill:#FFFFFF;}
</style>
<g>
	<g>
		<defs>
			<rect id="SVGID_1_" width="360.2" height="88.8"/>
		</defs>
		<clipPath id="SVGID_00000169516616500365149160000006594643850708435592_">
			<use xlink:href="#SVGID_1_" style="overflow:visible;"/>
		</clipPath>
		<g style="clip-path:url(#SVGID_00000169516616500365149160000006594643850708435592_);">
			<path class="st1" d="M315.8,88.7c-24.5,0-44.4-19.9-44.4-44.4S291.3,0,315.8,0s44.4,19.9,44.4,44.4l0,0     C360.1,68.9,340.3,88.7,315.8,88.7 M315.8,25.9c-10.2,0-18.5,8.3-18.5,18.5s8.3,18.5,18.5,18.5s18.5-8.3,18.5-18.5l0,0     C334.2,34.2,326,25.9,315.8,25.9"/>
			<path class="st1" d="M127.1,85.2c-16-6.5-26.5-22.2-26.4-39.5V3.2c0-1.1,0.9-2,2-2h21.9c1.1,0,2,0.9,2,2v42.5     c-0.1,5.8,3,11.2,8,14.2c14.3,8.1,28.9-2,28.9-15.6V3.2c0-1.1,0.9-2,2-2h21.9c1.1,0,2,0.9,2,2v41.2     C189.4,74.7,158.9,97.9,127.1,85.2"/>
			<path class="st1" d="M260.3,28.5l10.5-19c0.5-0.9,0.2-2.1-0.7-2.7c-10-6.2-22.2-8.2-33.7-5.5c-20.1,4.5-34.1,22.7-34.1,43.2v41.1     c0,1.1,0.9,2,2,2h21.9c1.1,0,2-0.9,2-2V45.1c0-10.4,8.4-18.9,18.8-19.1c3.7,0.1,7.3,1.2,10.4,3.2     C258.5,29.7,259.7,29.5,260.3,28.5L260.3,28.5"/>
			<path class="st1" d="M44.4,62.8c-10.2,0-18.5-8.3-18.5-18.5s8.3-18.5,18.5-18.5s18.5,8.3,18.5,18.5l0,0     C62.8,54.6,54.6,62.8,44.4,62.8 M44.4,88.8c24.5,0,44.4-19.9,44.4-44.4c0-18.3-11.2-34.7-28.2-41.3c-0.9-0.3-2,0-2.5,0.9L48,22.2     c-1.2-0.2-2.4-0.3-3.6-0.3c-1.2,0-2.4,0.1-3.6,0.3L30.7,4c-0.5-0.9-1.6-1.2-2.5-0.9C5.4,12-5.9,37.8,3.1,60.6     C9.7,77.6,26.1,88.8,44.4,88.8"/>
			<path class="st1" d="M353.7,82.6v0.6H352v4.4h-0.7v-4.4h-1.7v-0.6H353.7z"/>
			<path class="st1" d="M354.3,82.6h1l1.4,4.3l1.4-4.3h1v5h-0.7v-3c0-0.1,0-0.3,0-0.5s0-0.5,0-0.8l-1.4,4.2h-0.7l-1.4-4.2v0.2     c0,0.1,0,0.3,0,0.6c0,0.3,0,0.4,0,0.6v3h-0.7L354.3,82.6z"/>
		</g>
	</g>
</g>
</svg>